<?xml version="1.0" standalone="no"?>
<!DOCTYPE svg PUBLIC "-//W3C//DTD SVG 20010904//EN"
 "http://www.w3.org/TR/2001/REC-SVG-20010904/DTD/svg10.dtd">
<svg version="1.0" xmlns="http://www.w3.org/2000/svg"
 width="1080.000000pt" height="1080.000000pt" viewBox="0 0 1080.000000 1080.000000"
 preserveAspectRatio="xMidYMid meet">

<g transform="translate(0.000000,1080.000000) scale(0.100000,-0.100000)"
fill="#000000" stroke="none">
<path d="M4370 7290 l0 -330 45 0 45 0 0 -365 0 -365 -45 0 -45 0 0 -330 0
-330 328 2 327 3 3 48 3 47 365 0 364 0 0 -50 0 -50 328 2 327 3 3 328 2 327
-50 0 -50 0 0 365 0 365 50 0 50 0 0 330 0 330 -330 0 -330 0 0 -45 0 -45
-365 0 -365 0 0 45 0 45 -330 0 -330 0 0 -330z m1390 155 l0 -45 215 0 215 0
0 -220 0 -220 50 0 50 0 0 -365 0 -365 -50 0 -50 0 0 -215 0 -215 -215 0 -215
0 0 -50 0 -50 -365 0 -365 0 0 50 0 50 -220 0 -220 0 0 215 0 215 -45 0 -45 0
0 365 0 365 45 0 45 0 2 218 3 217 218 3 217 2 0 45 0 45 365 0 365 0 0 -45z"/>
<path d="M5170 6595 l0 -225 225 0 225 0 0 225 0 225 -225 0 -225 0 0 -225z"/>
<path d="M7368 4879 c-198 -29 -349 -102 -492 -238 -202 -194 -294 -456 -257
-732 36 -274 195 -487 459 -619 131 -65 210 -82 405 -87 247 -8 414 18 630 97
l87 32 0 217 c0 210 1 219 23 252 23 34 61 53 130 64 28 4 37 11 37 25 0 20
-10 20 -395 20 -388 0 -395 0 -395 -20 0 -16 7 -20 33 -20 52 0 106 -19 140
-50 l32 -28 3 -230 3 -229 -58 -17 c-79 -24 -240 -32 -311 -16 -138 30 -252
119 -310 241 -96 202 -117 560 -47 834 55 216 174 356 340 399 231 61 484 -40
622 -247 27 -40 62 -103 78 -140 24 -54 34 -67 52 -67 l23 0 0 285 0 285 -23
0 c-17 0 -28 -11 -42 -42 -11 -23 -32 -51 -47 -62 -33 -23 -52 -20 -228 42
-161 57 -330 75 -492 51z"/>
<path d="M9226 4193 c-170 -378 -326 -718 -347 -754 -46 -79 -103 -133 -158
-150 -33 -10 -41 -17 -41 -36 l0 -23 265 0 265 0 0 24 c0 21 -6 24 -57 31
-108 13 -153 50 -153 124 0 30 38 143 79 234 l22 47 287 0 287 0 63 -149 c62
-149 71 -186 52 -221 -12 -23 -68 -40 -132 -40 -44 0 -48 -2 -48 -25 l0 -25
390 0 390 0 0 24 c0 19 -7 25 -36 30 -50 10 -105 65 -150 149 -21 39 -174 380
-340 757 -178 404 -307 686 -316 688 -10 2 -103 -197 -322 -685z m284 -128
c62 -143 114 -266 117 -272 4 -10 -47 -13 -236 -13 -133 0 -241 4 -241 8 0 8
224 514 236 533 3 6 7 9 9 7 1 -2 53 -120 115 -263z"/>
<path d="M3084 4856 c-138 -31 -258 -95 -366 -195 -178 -164 -258 -354 -258
-613 0 -141 16 -234 57 -336 95 -239 277 -406 518 -477 109 -32 323 -45 444
-26 232 36 419 155 546 345 155 233 190 541 92 808 -39 107 -85 176 -187 278
-74 74 -113 105 -175 137 -139 72 -202 85 -420 89 -137 3 -207 0 -251 -10z
m376 -89 c117 -43 211 -184 253 -375 18 -83 21 -132 21 -337 1 -250 -6 -323
-46 -445 -50 -158 -144 -270 -252 -304 -83 -27 -213 -19 -281 16 -177 91 -265
328 -265 713 0 339 63 558 193 672 103 90 239 112 377 60z"/>
<path d="M400 4832 c0 -22 25 -32 78 -32 47 0 98 -24 119 -56 17 -27 18 -66
18 -699 0 -624 -1 -673 -18 -698 -27 -42 -62 -59 -132 -65 -60 -4 -65 -6 -65
-28 l0 -24 410 0 410 0 0 24 c0 22 -5 24 -65 28 -70 6 -105 23 -132 65 -16 24
-18 61 -21 326 l-3 298 55 -3 56 -3 258 -365 258 -365 255 0 c251 0 254 0 257
21 3 18 -4 22 -38 28 -26 4 -54 19 -82 44 -22 20 -142 179 -265 352 -189 266
-221 316 -206 321 112 41 161 68 214 116 69 64 107 138 117 226 28 245 -111
428 -369 483 -61 14 -166 17 -591 21 -510 5 -518 4 -518 -15z m920 -103 c114
-54 161 -135 168 -294 5 -117 -12 -193 -59 -261 -56 -81 -147 -114 -321 -114
l-108 0 0 351 0 351 133 -4 c116 -3 139 -7 187 -29z"/>
<path d="M4542 4828 c2 -16 11 -24 28 -26 69 -7 100 -24 155 -84 l56 -62 -3
-616 -3 -615 -24 -48 c-28 -57 -76 -86 -157 -94 -48 -5 -54 -8 -54 -29 l0 -24
285 0 285 0 0 24 c0 21 -5 24 -61 29 -79 7 -133 42 -162 105 -22 46 -22 58
-25 596 -2 350 0 547 7 545 5 -2 251 -301 546 -664 410 -506 542 -661 560
-663 l25 -3 2 738 c3 702 4 740 22 776 24 49 50 66 125 80 53 10 61 14 61 34
l0 23 -265 0 c-256 0 -265 -1 -265 -20 0 -14 9 -21 38 -25 20 -3 46 -8 58 -10
38 -8 89 -50 109 -90 19 -38 20 -63 23 -449 l3 -408 -398 500 -398 501 -288 1
-288 0 3 -22z"/>
</g>
</svg>
