<?xml version="1.0" standalone="no"?>
<!DOCTYPE svg PUBLIC "-//W3C//DTD SVG 20010904//EN"
 "http://www.w3.org/TR/2001/REC-SVG-20010904/DTD/svg10.dtd">
<svg version="1.0" xmlns="http://www.w3.org/2000/svg"
 width="1603.000000pt" height="1133.000000pt" viewBox="0 0 1603.000000 1133.000000"
 preserveAspectRatio="xMidYMid meet">

<g transform="translate(0.000000,1133.000000) scale(0.100000,-0.100000)"
fill="#000000" stroke="none">
<path d="M2340 6855 l0 -295 35 0 35 0 0 -320 0 -320 -35 0 -35 0 0 -295 0
-295 300 0 300 0 0 45 0 45 308 -2 307 -3 3 -42 3 -43 295 0 294 0 0 295 0
295 -40 0 -40 0 0 320 0 320 40 0 40 0 0 295 0 295 -295 0 -295 0 0 -40 0 -40
-310 0 -310 0 0 40 0 40 -300 0 -300 0 0 -295z m1218 133 l3 -38 195 0 194 0
0 -195 0 -195 35 0 35 0 0 -320 0 -320 -35 0 -35 0 0 -195 0 -195 -195 0 -195
0 0 -35 0 -35 -310 0 -310 0 0 35 0 35 -197 2 -198 3 -3 192 -2 192 -43 3 -42
3 -3 318 -2 317 45 0 45 0 0 195 0 195 200 0 200 0 0 40 0 40 308 -2 307 -3 3
-37z"/>
<path d="M3030 6245 l0 -205 205 0 205 0 0 205 0 205 -205 0 -205 0 0 -205z"/>
<path d="M11530 7024 c-201 -31 -331 -89 -456 -207 -121 -112 -196 -241 -229
-390 -26 -119 -18 -326 17 -425 38 -105 83 -176 163 -257 177 -179 402 -257
695 -241 176 9 293 32 447 88 l83 30 1 161 c0 89 4 183 8 210 9 55 40 93 82
101 16 4 43 9 59 12 21 4 30 11 30 25 0 18 -12 19 -355 19 -340 0 -355 -1
-355 -19 0 -14 9 -19 43 -23 56 -7 95 -26 120 -60 19 -25 21 -47 25 -222 l5
-195 -69 -20 c-99 -28 -152 -33 -228 -21 -251 40 -362 193 -397 546 -19 193
14 418 81 562 39 83 117 164 196 203 52 26 79 32 152 37 105 6 170 -7 262 -52
117 -56 244 -204 291 -338 9 -25 19 -38 31 -38 17 0 18 16 18 260 0 241 -1
260 -17 260 -11 0 -25 -16 -36 -40 -11 -23 -32 -47 -49 -56 -29 -15 -35 -14
-163 30 -73 26 -166 51 -207 56 -71 9 -198 11 -248 4z"/>
<path d="M13216 6482 c-132 -295 -268 -596 -303 -668 -69 -145 -119 -206 -184
-226 -27 -8 -39 -17 -39 -30 0 -17 14 -18 240 -18 233 0 240 1 240 20 0 16 -7
20 -31 20 -55 0 -119 22 -139 48 -31 39 -25 94 23 212 l43 105 259 0 259 0 58
-135 c32 -74 58 -145 58 -156 0 -12 -8 -32 -19 -45 -15 -19 -30 -24 -85 -27
-56 -4 -66 -7 -66 -23 0 -18 14 -19 350 -19 330 0 350 1 350 18 0 13 -13 21
-45 30 -82 22 -88 33 -441 839 -177 406 -264 593 -274 592 -10 0 -92 -174
-254 -537z m222 -200 c56 -131 102 -241 102 -245 0 -4 -97 -7 -216 -7 -119 0
-214 4 -212 9 22 57 214 481 218 481 3 0 51 -107 108 -238z"/>
<path d="M7612 6990 c-201 -53 -370 -197 -462 -395 -55 -116 -65 -170 -65
-330 1 -167 14 -228 82 -365 39 -80 60 -109 137 -185 70 -70 109 -99 167 -128
127 -62 211 -80 384 -80 176 0 259 18 384 83 173 90 307 263 363 469 31 112
31 316 0 426 -74 257 -281 458 -528 510 -105 22 -368 19 -462 -5z m360 -67
c101 -31 195 -156 233 -308 33 -132 44 -379 25 -545 -33 -287 -140 -448 -317
-480 -58 -11 -78 -10 -133 4 -119 30 -198 109 -249 251 -48 134 -56 199 -55
435 1 197 3 223 26 311 32 119 66 187 126 252 89 95 208 123 344 80z"/>
<path d="M5230 6971 c0 -18 6 -21 45 -21 59 0 109 -21 132 -56 17 -26 18 -64
18 -629 0 -565 -1 -603 -18 -629 -23 -35 -73 -56 -132 -56 -38 0 -45 -3 -45
-20 0 -20 7 -20 370 -20 363 0 370 0 370 20 0 17 -7 20 -45 20 -54 0 -102 19
-130 50 -19 21 -20 39 -23 296 l-3 274 48 0 48 -1 231 -327 231 -327 231 -3
c218 -2 232 -1 232 16 0 13 -13 21 -44 30 -34 9 -54 24 -88 64 -43 51 -408
561 -408 570 0 3 19 11 43 18 193 57 302 228 267 421 -15 81 -51 148 -110 203
-57 53 -108 80 -192 103 -53 14 -136 17 -545 20 -483 4 -483 4 -483 -16z m803
-78 c113 -33 177 -143 177 -304 0 -109 -22 -172 -78 -228 -60 -59 -99 -72
-244 -78 l-118 -5 0 322 0 323 106 -7 c58 -4 128 -14 157 -23z"/>
<path d="M8960 6970 c0 -15 7 -20 25 -20 44 0 96 -28 141 -77 l44 -48 0 -549
c0 -383 -3 -560 -11 -587 -20 -65 -86 -109 -165 -109 -27 0 -34 -4 -34 -20 0
-19 7 -20 255 -20 248 0 255 1 255 20 0 17 -7 20 -43 20 -62 0 -125 36 -151
85 -20 39 -21 56 -24 545 -2 299 1 501 6 495 5 -6 226 -278 492 -605 265 -327
491 -596 501 -598 17 -3 18 24 21 660 3 597 5 667 20 700 20 44 66 75 125 84
33 5 43 11 43 25 0 18 -11 19 -240 19 -233 0 -240 -1 -240 -20 0 -16 7 -20 33
-20 84 0 147 -43 166 -113 8 -29 11 -151 9 -388 l-3 -346 -351 441 -351 441
-261 3 c-257 2 -262 2 -262 -18z"/>
</g>
</svg>
